<?xml version="1.0" encoding="utf-8" standalone="no"?>
<!DOCTYPE svg PUBLIC "-//W3C//DTD SVG 1.1//EN"
  "http://www.w3.org/Graphics/SVG/1.1/DTD/svg11.dtd">
<svg xmlns:xlink="http://www.w3.org/1999/xlink" width="568.221406pt" height="352.435937pt" viewBox="0 0 568.221406 352.435937" xmlns="http://www.w3.org/2000/svg" version="1.1">
 <metadata>
  <rdf:RDF xmlns:dc="http://purl.org/dc/elements/1.1/" xmlns:cc="http://creativecommons.org/ns#" xmlns:rdf="http://www.w3.org/1999/02/22-rdf-syntax-ns#">
   <cc:Work>
    <dc:type rdf:resource="http://purl.org/dc/dcmitype/StillImage"/>
    <dc:date>2026-06-30T21:41:46.947827</dc:date>
    <dc:format>image/svg+xml</dc:format>
    <dc:creator>
     <cc:Agent>
      <dc:title>Matplotlib v3.11.0, https://matplotlib.org/</dc:title>
     </cc:Agent>
    </dc:creator>
   </cc:Work>
  </rdf:RDF>
 </metadata>
 <defs>
  <style type="text/css">*{stroke-linejoin: round; stroke-linecap: butt}</style>
 </defs>
 <g id="figure_1">
  <g id="patch_1">
   <path d="M 0 352.435937 
L 568.221406 352.435937 
L 568.221406 0 
L 0 0 
z
" style="fill: #ffffff"/>
  </g>
  <g id="axes_1">
   <g id="patch_2">
    <path d="M 41.603984 314.932734 
L 561.021406 314.932734 
L 561.021406 32.597656 
L 41.603984 32.597656 
z
" style="fill: #ffffff"/>
   </g>
   <g id="matplotlib.axis_1">
    <g id="xtick_1">
     <g id="line2d_1"/>
     <g id="text_1">
      <!-- $\mathdefault{10^{1}}$ -->
      <g style="fill: #8a8a8a" transform="translate(123.870675 327.732734) scale(0.1 -0.1)">
       <defs>
        <path id="DejaVuSans-14" d="M 794 531 
L 1825 531 
L 1825 4091 
L 703 3866 
L 703 4441 
L 1819 4666 
L 2450 4666 
L 2450 531 
L 3481 531 
L 3481 0 
L 794 0 
L 794 531 
z
" transform="scale(0.015625)"/>
        <path id="DejaVuSans-13" d="M 2034 4250 
Q 1547 4250 1301 3770 
Q 1056 3291 1056 2328 
Q 1056 1369 1301 889 
Q 1547 409 2034 409 
Q 2525 409 2770 889 
Q 3016 1369 3016 2328 
Q 3016 3291 2770 3770 
Q 2525 4250 2034 4250 
z
M 2034 4750 
Q 2819 4750 3233 4129 
Q 3647 3509 3647 2328 
Q 3647 1150 3233 529 
Q 2819 -91 2034 -91 
Q 1250 -91 836 529 
Q 422 1150 422 2328 
Q 422 3509 836 4129 
Q 1250 4750 2034 4750 
z
" transform="scale(0.015625)"/>
       </defs>
       <use xlink:href="#DejaVuSans-14" transform="translate(0 0.665625)"/>
       <use xlink:href="#DejaVuSans-13" transform="translate(63.623047 0.665625)"/>
       <use xlink:href="#DejaVuSans-14" transform="translate(128.203125 41.965625) scale(0.7)"/>
      </g>
     </g>
    </g>
    <g id="xtick_2">
     <g id="line2d_2"/>
     <g id="text_2">
      <!-- $\mathdefault{10^{2}}$ -->
      <g style="fill: #8a8a8a" transform="translate(347.957341 327.832734) scale(0.1 -0.1)">
       <defs>
        <path id="DejaVuSans-15" d="M 1228 531 
L 3431 531 
L 3431 0 
L 469 0 
L 469 531 
Q 828 903 1448 1529 
Q 2069 2156 2228 2338 
Q 2531 2678 2651 2914 
Q 2772 3150 2772 3378 
Q 2772 3750 2511 3984 
Q 2250 4219 1831 4219 
Q 1534 4219 1204 4116 
Q 875 4013 500 3803 
L 500 4441 
Q 881 4594 1212 4672 
Q 1544 4750 1819 4750 
Q 2544 4750 2975 4387 
Q 3406 4025 3406 3419 
Q 3406 3131 3298 2873 
Q 3191 2616 2906 2266 
Q 2828 2175 2409 1742 
Q 1991 1309 1228 531 
z
" transform="scale(0.015625)"/>
       </defs>
       <use xlink:href="#DejaVuSans-14" transform="translate(0 0.746875)"/>
       <use xlink:href="#DejaVuSans-13" transform="translate(63.623047 0.746875)"/>
       <use xlink:href="#DejaVuSans-15" transform="translate(128.203125 42.046875) scale(0.7)"/>
      </g>
     </g>
    </g>
    <g id="xtick_3">
     <g id="line2d_3">
      <defs>
       <path id="m234a9b5b62" d="M 0 0 
L 0 2 
" style="stroke: #000000; stroke-width: 0.6"/>
      </defs>
      <g>
       <use xlink:href="#m234a9b5b62" x="43.497625" y="314.932734" style="stroke: #000000; stroke-width: 0.6"/>
      </g>
     </g>
    </g>
    <g id="xtick_4">
     <g id="line2d_4">
      <g>
       <use xlink:href="#m234a9b5b62" x="65.213867" y="314.932734" style="stroke: #000000; stroke-width: 0.6"/>
      </g>
     </g>
    </g>
    <g id="xtick_5">
     <g id="line2d_5">
      <g>
       <use xlink:href="#m234a9b5b62" x="82.957329" y="314.932734" style="stroke: #000000; stroke-width: 0.6"/>
      </g>
     </g>
    </g>
    <g id="xtick_6">
     <g id="line2d_6">
      <g>
       <use xlink:href="#m234a9b5b62" x="97.959211" y="314.932734" style="stroke: #000000; stroke-width: 0.6"/>
      </g>
     </g>
    </g>
    <g id="xtick_7">
     <g id="line2d_7">
      <g>
       <use xlink:href="#m234a9b5b62" x="110.954434" y="314.932734" style="stroke: #000000; stroke-width: 0.6"/>
      </g>
     </g>
    </g>
    <g id="xtick_8">
     <g id="line2d_8">
      <g>
       <use xlink:href="#m234a9b5b62" x="122.417032" y="314.932734" style="stroke: #000000; stroke-width: 0.6"/>
      </g>
     </g>
    </g>
    <g id="xtick_9">
     <g id="line2d_9">
      <g>
       <use xlink:href="#m234a9b5b62" x="200.127483" y="314.932734" style="stroke: #000000; stroke-width: 0.6"/>
      </g>
     </g>
    </g>
    <g id="xtick_10">
     <g id="line2d_10">
      <g>
       <use xlink:href="#m234a9b5b62" x="239.587186" y="314.932734" style="stroke: #000000; stroke-width: 0.6"/>
      </g>
     </g>
    </g>
    <g id="xtick_11">
     <g id="line2d_11">
      <g>
       <use xlink:href="#m234a9b5b62" x="267.584291" y="314.932734" style="stroke: #000000; stroke-width: 0.6"/>
      </g>
     </g>
    </g>
    <g id="xtick_12">
     <g id="line2d_12">
      <g>
       <use xlink:href="#m234a9b5b62" x="289.300533" y="314.932734" style="stroke: #000000; stroke-width: 0.6"/>
      </g>
     </g>
    </g>
    <g id="xtick_13">
     <g id="line2d_13">
      <g>
       <use xlink:href="#m234a9b5b62" x="307.043994" y="314.932734" style="stroke: #000000; stroke-width: 0.6"/>
      </g>
     </g>
    </g>
    <g id="xtick_14">
     <g id="line2d_14">
      <g>
       <use xlink:href="#m234a9b5b62" x="322.045877" y="314.932734" style="stroke: #000000; stroke-width: 0.6"/>
      </g>
     </g>
    </g>
    <g id="xtick_15">
     <g id="line2d_15">
      <g>
       <use xlink:href="#m234a9b5b62" x="335.041099" y="314.932734" style="stroke: #000000; stroke-width: 0.6"/>
      </g>
     </g>
    </g>
    <g id="xtick_16">
     <g id="line2d_16">
      <g>
       <use xlink:href="#m234a9b5b62" x="346.503698" y="314.932734" style="stroke: #000000; stroke-width: 0.6"/>
      </g>
     </g>
    </g>
    <g id="xtick_17">
     <g id="line2d_17">
      <g>
       <use xlink:href="#m234a9b5b62" x="424.214149" y="314.932734" style="stroke: #000000; stroke-width: 0.6"/>
      </g>
     </g>
    </g>
    <g id="xtick_18">
     <g id="line2d_18">
      <g>
       <use xlink:href="#m234a9b5b62" x="463.673852" y="314.932734" style="stroke: #000000; stroke-width: 0.6"/>
      </g>
     </g>
    </g>
    <g id="xtick_19">
     <g id="line2d_19">
      <g>
       <use xlink:href="#m234a9b5b62" x="491.670957" y="314.932734" style="stroke: #000000; stroke-width: 0.6"/>
      </g>
     </g>
    </g>
    <g id="xtick_20">
     <g id="line2d_20">
      <g>
       <use xlink:href="#m234a9b5b62" x="513.387199" y="314.932734" style="stroke: #000000; stroke-width: 0.6"/>
      </g>
     </g>
    </g>
    <g id="xtick_21">
     <g id="line2d_21">
      <g>
       <use xlink:href="#m234a9b5b62" x="531.13066" y="314.932734" style="stroke: #000000; stroke-width: 0.6"/>
      </g>
     </g>
    </g>
    <g id="xtick_22">
     <g id="line2d_22">
      <g>
       <use xlink:href="#m234a9b5b62" x="546.132543" y="314.932734" style="stroke: #000000; stroke-width: 0.6"/>
      </g>
     </g>
    </g>
    <g id="xtick_23">
     <g id="line2d_23">
      <g>
       <use xlink:href="#m234a9b5b62" x="559.127765" y="314.932734" style="stroke: #000000; stroke-width: 0.6"/>
      </g>
     </g>
    </g>
    <g id="text_3">
     <!-- training traces -->
     <g style="fill: #0a0a0a" transform="translate(261.19707 342.593359) scale(0.11 -0.11)">
      <defs>
       <path id="DejaVuSans-57" d="M 1172 4494 
L 1172 3500 
L 2356 3500 
L 2356 3053 
L 1172 3053 
L 1172 1153 
Q 1172 725 1289 603 
Q 1406 481 1766 481 
L 2356 481 
L 2356 0 
L 1766 0 
Q 1100 0 847 248 
Q 594 497 594 1153 
L 594 3053 
L 172 3053 
L 172 3500 
L 594 3500 
L 594 4494 
L 1172 4494 
z
" transform="scale(0.015625)"/>
       <path id="DejaVuSans-55" d="M 2631 2963 
Q 2534 3019 2420 3045 
Q 2306 3072 2169 3072 
Q 1681 3072 1420 2755 
Q 1159 2438 1159 1844 
L 1159 0 
L 581 0 
L 581 3500 
L 1159 3500 
L 1159 2956 
Q 1341 3275 1631 3429 
Q 1922 3584 2338 3584 
Q 2397 3584 2469 3576 
Q 2541 3569 2628 3553 
L 2631 2963 
z
" transform="scale(0.015625)"/>
       <path id="DejaVuSans-44" d="M 2194 1759 
Q 1497 1759 1228 1600 
Q 959 1441 959 1056 
Q 959 750 1161 570 
Q 1363 391 1709 391 
Q 2188 391 2477 730 
Q 2766 1069 2766 1631 
L 2766 1759 
L 2194 1759 
z
M 3341 1997 
L 3341 0 
L 2766 0 
L 2766 531 
Q 2569 213 2275 61 
Q 1981 -91 1556 -91 
Q 1019 -91 701 211 
Q 384 513 384 1019 
Q 384 1609 779 1909 
Q 1175 2209 1959 2209 
L 2766 2209 
L 2766 2266 
Q 2766 2663 2505 2880 
Q 2244 3097 1772 3097 
Q 1472 3097 1187 3025 
Q 903 2953 641 2809 
L 641 3341 
Q 956 3463 1253 3523 
Q 1550 3584 1831 3584 
Q 2591 3584 2966 3190 
Q 3341 2797 3341 1997 
z
" transform="scale(0.015625)"/>
       <path id="DejaVuSans-4c" d="M 603 3500 
L 1178 3500 
L 1178 0 
L 603 0 
L 603 3500 
z
M 603 4863 
L 1178 4863 
L 1178 4134 
L 603 4134 
L 603 4863 
z
" transform="scale(0.015625)"/>
       <path id="DejaVuSans-51" d="M 3513 2113 
L 3513 0 
L 2938 0 
L 2938 2094 
Q 2938 2591 2744 2837 
Q 2550 3084 2163 3084 
Q 1697 3084 1428 2787 
Q 1159 2491 1159 1978 
L 1159 0 
L 581 0 
L 581 3500 
L 1159 3500 
L 1159 2956 
Q 1366 3272 1645 3428 
Q 1925 3584 2291 3584 
Q 2894 3584 3203 3211 
Q 3513 2838 3513 2113 
z
" transform="scale(0.015625)"/>
       <path id="DejaVuSans-4a" d="M 2906 1791 
Q 2906 2416 2648 2759 
Q 2391 3103 1925 3103 
Q 1463 3103 1205 2759 
Q 947 2416 947 1791 
Q 947 1169 1205 825 
Q 1463 481 1925 481 
Q 2391 481 2648 825 
Q 2906 1169 2906 1791 
z
M 3481 434 
Q 3481 -459 3084 -895 
Q 2688 -1331 1869 -1331 
Q 1566 -1331 1297 -1286 
Q 1028 -1241 775 -1147 
L 775 -588 
Q 1028 -725 1275 -790 
Q 1522 -856 1778 -856 
Q 2344 -856 2625 -561 
Q 2906 -266 2906 331 
L 2906 616 
Q 2728 306 2450 153 
Q 2172 0 1784 0 
Q 1141 0 747 490 
Q 353 981 353 1791 
Q 353 2603 747 3093 
Q 1141 3584 1784 3584 
Q 2172 3584 2450 3431 
Q 2728 3278 2906 2969 
L 2906 3500 
L 3481 3500 
L 3481 434 
z
" transform="scale(0.015625)"/>
       <path id="DejaVuSans-3" transform="scale(0.015625)"/>
       <path id="DejaVuSans-46" d="M 3122 3366 
L 3122 2828 
Q 2878 2963 2633 3030 
Q 2388 3097 2138 3097 
Q 1578 3097 1268 2742 
Q 959 2388 959 1747 
Q 959 1106 1268 751 
Q 1578 397 2138 397 
Q 2388 397 2633 464 
Q 2878 531 3122 666 
L 3122 134 
Q 2881 22 2623 -34 
Q 2366 -91 2075 -91 
Q 1284 -91 818 406 
Q 353 903 353 1747 
Q 353 2603 823 3093 
Q 1294 3584 2113 3584 
Q 2378 3584 2631 3529 
Q 2884 3475 3122 3366 
z
" transform="scale(0.015625)"/>
       <path id="DejaVuSans-48" d="M 3597 1894 
L 3597 1613 
L 953 1613 
Q 991 1019 1311 708 
Q 1631 397 2203 397 
Q 2534 397 2845 478 
Q 3156 559 3463 722 
L 3463 178 
Q 3153 47 2828 -22 
Q 2503 -91 2169 -91 
Q 1331 -91 842 396 
Q 353 884 353 1716 
Q 353 2575 817 3079 
Q 1281 3584 2069 3584 
Q 2775 3584 3186 3129 
Q 3597 2675 3597 1894 
z
M 3022 2063 
Q 3016 2534 2758 2815 
Q 2500 3097 2075 3097 
Q 1594 3097 1305 2825 
Q 1016 2553 972 2059 
L 3022 2063 
z
" transform="scale(0.015625)"/>
       <path id="DejaVuSans-56" d="M 2834 3397 
L 2834 2853 
Q 2591 2978 2328 3040 
Q 2066 3103 1784 3103 
Q 1356 3103 1142 2972 
Q 928 2841 928 2578 
Q 928 2378 1081 2264 
Q 1234 2150 1697 2047 
L 1894 2003 
Q 2506 1872 2764 1633 
Q 3022 1394 3022 966 
Q 3022 478 2636 193 
Q 2250 -91 1575 -91 
Q 1294 -91 989 -36 
Q 684 19 347 128 
L 347 722 
Q 666 556 975 473 
Q 1284 391 1588 391 
Q 1994 391 2212 530 
Q 2431 669 2431 922 
Q 2431 1156 2273 1281 
Q 2116 1406 1581 1522 
L 1381 1569 
Q 847 1681 609 1914 
Q 372 2147 372 2553 
Q 372 3047 722 3315 
Q 1072 3584 1716 3584 
Q 2034 3584 2315 3537 
Q 2597 3491 2834 3397 
z
" transform="scale(0.015625)"/>
      </defs>
      <use xlink:href="#DejaVuSans-57"/>
      <use xlink:href="#DejaVuSans-55" transform="translate(39.203125 0)"/>
      <use xlink:href="#DejaVuSans-44" transform="translate(80.3125 0)"/>
      <use xlink:href="#DejaVuSans-4c" transform="translate(141.59375 0)"/>
      <use xlink:href="#DejaVuSans-51" transform="translate(169.375 0)"/>
      <use xlink:href="#DejaVuSans-4c" transform="translate(232.75 0)"/>
      <use xlink:href="#DejaVuSans-51" transform="translate(260.53125 0)"/>
      <use xlink:href="#DejaVuSans-4a" transform="translate(323.90625 0)"/>
      <use xlink:href="#DejaVuSans-3" transform="translate(387.390625 0)"/>
      <use xlink:href="#DejaVuSans-57" transform="translate(419.171875 0)"/>
      <use xlink:href="#DejaVuSans-55" transform="translate(458.375 0)"/>
      <use xlink:href="#DejaVuSans-44" transform="translate(499.484375 0)"/>
      <use xlink:href="#DejaVuSans-46" transform="translate(560.765625 0)"/>
      <use xlink:href="#DejaVuSans-48" transform="translate(615.75 0)"/>
      <use xlink:href="#DejaVuSans-56" transform="translate(677.28125 0)"/>
     </g>
    </g>
   </g>
   <g id="matplotlib.axis_2">
    <g id="ytick_1">
     <g id="line2d_24">
      <path d="M 41.603984 314.932734 
L 561.021406 314.932734 
" clip-path="url(#p3a3e5a61fa)" style="fill: none; stroke: #ececec; stroke-linecap: square"/>
     </g>
     <g id="line2d_25"/>
     <g id="text_4">
      <!-- 0.0 -->
      <g style="fill: #8a8a8a" transform="translate(22.200859 318.731562) scale(0.1 -0.1)">
       <defs>
        <path id="DejaVuSans-11" d="M 684 794 
L 1344 794 
L 1344 0 
L 684 0 
L 684 794 
z
" transform="scale(0.015625)"/>
       </defs>
       <use xlink:href="#DejaVuSans-13"/>
       <use xlink:href="#DejaVuSans-11" transform="translate(63.625 0)"/>
       <use xlink:href="#DejaVuSans-13" transform="translate(95.40625 0)"/>
      </g>
     </g>
    </g>
    <g id="ytick_2">
     <g id="line2d_26">
      <path d="M 41.603984 258.465719 
L 561.021406 258.465719 
" clip-path="url(#p3a3e5a61fa)" style="fill: none; stroke: #ececec; stroke-linecap: square"/>
     </g>
     <g id="line2d_27"/>
     <g id="text_5">
      <!-- 0.2 -->
      <g style="fill: #8a8a8a" transform="translate(22.200859 262.264547) scale(0.1 -0.1)">
       <use xlink:href="#DejaVuSans-13"/>
       <use xlink:href="#DejaVuSans-11" transform="translate(63.625 0)"/>
       <use xlink:href="#DejaVuSans-15" transform="translate(95.40625 0)"/>
      </g>
     </g>
    </g>
    <g id="ytick_3">
     <g id="line2d_28">
      <path d="M 41.603984 201.998703 
L 561.021406 201.998703 
" clip-path="url(#p3a3e5a61fa)" style="fill: none; stroke: #ececec; stroke-linecap: square"/>
     </g>
     <g id="line2d_29"/>
     <g id="text_6">
      <!-- 0.4 -->
      <g style="fill: #8a8a8a" transform="translate(22.200859 205.797531) scale(0.1 -0.1)">
       <defs>
        <path id="DejaVuSans-17" d="M 2419 4116 
L 825 1625 
L 2419 1625 
L 2419 4116 
z
M 2253 4666 
L 3047 4666 
L 3047 1625 
L 3713 1625 
L 3713 1100 
L 3047 1100 
L 3047 0 
L 2419 0 
L 2419 1100 
L 313 1100 
L 313 1709 
L 2253 4666 
z
" transform="scale(0.015625)"/>
       </defs>
       <use xlink:href="#DejaVuSans-13"/>
       <use xlink:href="#DejaVuSans-11" transform="translate(63.625 0)"/>
       <use xlink:href="#DejaVuSans-17" transform="translate(95.40625 0)"/>
      </g>
     </g>
    </g>
    <g id="ytick_4">
     <g id="line2d_30">
      <path d="M 41.603984 145.531687 
L 561.021406 145.531687 
" clip-path="url(#p3a3e5a61fa)" style="fill: none; stroke: #ececec; stroke-linecap: square"/>
     </g>
     <g id="line2d_31"/>
     <g id="text_7">
      <!-- 0.6 -->
      <g style="fill: #8a8a8a" transform="translate(22.200859 149.330516) scale(0.1 -0.1)">
       <defs>
        <path id="DejaVuSans-19" d="M 2113 2584 
Q 1688 2584 1439 2293 
Q 1191 2003 1191 1497 
Q 1191 994 1439 701 
Q 1688 409 2113 409 
Q 2538 409 2786 701 
Q 3034 994 3034 1497 
Q 3034 2003 2786 2293 
Q 2538 2584 2113 2584 
z
M 3366 4563 
L 3366 3988 
Q 3128 4100 2886 4159 
Q 2644 4219 2406 4219 
Q 1781 4219 1451 3797 
Q 1122 3375 1075 2522 
Q 1259 2794 1537 2939 
Q 1816 3084 2150 3084 
Q 2853 3084 3261 2657 
Q 3669 2231 3669 1497 
Q 3669 778 3244 343 
Q 2819 -91 2113 -91 
Q 1303 -91 875 529 
Q 447 1150 447 2328 
Q 447 3434 972 4092 
Q 1497 4750 2381 4750 
Q 2619 4750 2861 4703 
Q 3103 4656 3366 4563 
z
" transform="scale(0.015625)"/>
       </defs>
       <use xlink:href="#DejaVuSans-13"/>
       <use xlink:href="#DejaVuSans-11" transform="translate(63.625 0)"/>
       <use xlink:href="#DejaVuSans-19" transform="translate(95.40625 0)"/>
      </g>
     </g>
    </g>
    <g id="ytick_5">
     <g id="line2d_32">
      <path d="M 41.603984 89.064672 
L 561.021406 89.064672 
" clip-path="url(#p3a3e5a61fa)" style="fill: none; stroke: #ececec; stroke-linecap: square"/>
     </g>
     <g id="line2d_33"/>
     <g id="text_8">
      <!-- 0.8 -->
      <g style="fill: #8a8a8a" transform="translate(22.200859 92.8635) scale(0.1 -0.1)">
       <defs>
        <path id="DejaVuSans-1b" d="M 2034 2216 
Q 1584 2216 1326 1975 
Q 1069 1734 1069 1313 
Q 1069 891 1326 650 
Q 1584 409 2034 409 
Q 2484 409 2743 651 
Q 3003 894 3003 1313 
Q 3003 1734 2745 1975 
Q 2488 2216 2034 2216 
z
M 1403 2484 
Q 997 2584 770 2862 
Q 544 3141 544 3541 
Q 544 4100 942 4425 
Q 1341 4750 2034 4750 
Q 2731 4750 3128 4425 
Q 3525 4100 3525 3541 
Q 3525 3141 3298 2862 
Q 3072 2584 2669 2484 
Q 3125 2378 3379 2068 
Q 3634 1759 3634 1313 
Q 3634 634 3220 271 
Q 2806 -91 2034 -91 
Q 1263 -91 848 271 
Q 434 634 434 1313 
Q 434 1759 690 2068 
Q 947 2378 1403 2484 
z
M 1172 3481 
Q 1172 3119 1398 2916 
Q 1625 2713 2034 2713 
Q 2441 2713 2670 2916 
Q 2900 3119 2900 3481 
Q 2900 3844 2670 4047 
Q 2441 4250 2034 4250 
Q 1625 4250 1398 4047 
Q 1172 3844 1172 3481 
z
" transform="scale(0.015625)"/>
       </defs>
       <use xlink:href="#DejaVuSans-13"/>
       <use xlink:href="#DejaVuSans-11" transform="translate(63.625 0)"/>
       <use xlink:href="#DejaVuSans-1b" transform="translate(95.40625 0)"/>
      </g>
     </g>
    </g>
    <g id="ytick_6">
     <g id="line2d_34">
      <path d="M 41.603984 32.597656 
L 561.021406 32.597656 
" clip-path="url(#p3a3e5a61fa)" style="fill: none; stroke: #ececec; stroke-linecap: square"/>
     </g>
     <g id="line2d_35"/>
     <g id="text_9">
      <!-- 1.0 -->
      <g style="fill: #8a8a8a" transform="translate(22.200859 36.396484) scale(0.1 -0.1)">
       <use xlink:href="#DejaVuSans-14"/>
       <use xlink:href="#DejaVuSans-11" transform="translate(63.625 0)"/>
       <use xlink:href="#DejaVuSans-13" transform="translate(95.40625 0)"/>
      </g>
     </g>
    </g>
    <g id="text_10">
     <!-- reconstruction fidelity -->
     <g style="fill: #0a0a0a" transform="translate(15.558281 234.046914) rotate(-90) scale(0.11 -0.11)">
      <defs>
       <path id="DejaVuSans-52" d="M 1959 3097 
Q 1497 3097 1228 2736 
Q 959 2375 959 1747 
Q 959 1119 1226 758 
Q 1494 397 1959 397 
Q 2419 397 2687 759 
Q 2956 1122 2956 1747 
Q 2956 2369 2687 2733 
Q 2419 3097 1959 3097 
z
M 1959 3584 
Q 2709 3584 3137 3096 
Q 3566 2609 3566 1747 
Q 3566 888 3137 398 
Q 2709 -91 1959 -91 
Q 1206 -91 779 398 
Q 353 888 353 1747 
Q 353 2609 779 3096 
Q 1206 3584 1959 3584 
z
" transform="scale(0.015625)"/>
       <path id="DejaVuSans-58" d="M 544 1381 
L 544 3500 
L 1119 3500 
L 1119 1403 
Q 1119 906 1312 657 
Q 1506 409 1894 409 
Q 2359 409 2629 706 
Q 2900 1003 2900 1516 
L 2900 3500 
L 3475 3500 
L 3475 0 
L 2900 0 
L 2900 538 
Q 2691 219 2414 64 
Q 2138 -91 1772 -91 
Q 1169 -91 856 284 
Q 544 659 544 1381 
z
M 1991 3584 
L 1991 3584 
z
" transform="scale(0.015625)"/>
       <path id="DejaVuSans-13af" d="M 3431 3500 
L 3431 0 
L 2853 0 
L 2853 3053 
L 1275 3053 
L 1275 0 
L 697 0 
L 697 3053 
L 147 3053 
L 147 3500 
L 697 3500 
L 697 3744 
Q 697 4316 967 4589 
Q 1238 4863 1797 4863 
L 2375 4863 
L 2375 4384 
L 1825 4384 
Q 1516 4384 1395 4259 
Q 1275 4134 1275 3809 
L 1275 3500 
L 3431 3500 
z
M 2853 4856 
L 3431 4856 
L 3431 4128 
L 2853 4128 
L 2853 4856 
z
" transform="scale(0.015625)"/>
       <path id="DejaVuSans-47" d="M 2906 2969 
L 2906 4863 
L 3481 4863 
L 3481 0 
L 2906 0 
L 2906 525 
Q 2725 213 2448 61 
Q 2172 -91 1784 -91 
Q 1150 -91 751 415 
Q 353 922 353 1747 
Q 353 2572 751 3078 
Q 1150 3584 1784 3584 
Q 2172 3584 2448 3432 
Q 2725 3281 2906 2969 
z
M 947 1747 
Q 947 1113 1208 752 
Q 1469 391 1925 391 
Q 2381 391 2643 752 
Q 2906 1113 2906 1747 
Q 2906 2381 2643 2742 
Q 2381 3103 1925 3103 
Q 1469 3103 1208 2742 
Q 947 2381 947 1747 
z
" transform="scale(0.015625)"/>
       <path id="DejaVuSans-4f" d="M 603 4863 
L 1178 4863 
L 1178 0 
L 603 0 
L 603 4863 
z
" transform="scale(0.015625)"/>
       <path id="DejaVuSans-5c" d="M 2059 -325 
Q 1816 -950 1584 -1140 
Q 1353 -1331 966 -1331 
L 506 -1331 
L 506 -850 
L 844 -850 
Q 1081 -850 1212 -737 
Q 1344 -625 1503 -206 
L 1606 56 
L 191 3500 
L 800 3500 
L 1894 763 
L 2988 3500 
L 3597 3500 
L 2059 -325 
z
" transform="scale(0.015625)"/>
      </defs>
      <use xlink:href="#DejaVuSans-55"/>
      <use xlink:href="#DejaVuSans-48" transform="translate(38.90625 0)"/>
      <use xlink:href="#DejaVuSans-46" transform="translate(100.4375 0)"/>
      <use xlink:href="#DejaVuSans-52" transform="translate(155.421875 0)"/>
      <use xlink:href="#DejaVuSans-51" transform="translate(216.609375 0)"/>
      <use xlink:href="#DejaVuSans-56" transform="translate(279.984375 0)"/>
      <use xlink:href="#DejaVuSans-57" transform="translate(332.078125 0)"/>
      <use xlink:href="#DejaVuSans-55" transform="translate(371.28125 0)"/>
      <use xlink:href="#DejaVuSans-58" transform="translate(412.390625 0)"/>
      <use xlink:href="#DejaVuSans-46" transform="translate(475.765625 0)"/>
      <use xlink:href="#DejaVuSans-57" transform="translate(530.75 0)"/>
      <use xlink:href="#DejaVuSans-4c" transform="translate(569.953125 0)"/>
      <use xlink:href="#DejaVuSans-52" transform="translate(597.734375 0)"/>
      <use xlink:href="#DejaVuSans-51" transform="translate(658.921875 0)"/>
      <use xlink:href="#DejaVuSans-3" transform="translate(722.296875 0)"/>
      <use xlink:href="#DejaVuSans-13af" transform="translate(754.078125 0)"/>
      <use xlink:href="#DejaVuSans-47" transform="translate(817.0625 0)"/>
      <use xlink:href="#DejaVuSans-48" transform="translate(880.546875 0)"/>
      <use xlink:href="#DejaVuSans-4f" transform="translate(942.078125 0)"/>
      <use xlink:href="#DejaVuSans-4c" transform="translate(969.859375 0)"/>
      <use xlink:href="#DejaVuSans-57" transform="translate(997.640625 0)"/>
      <use xlink:href="#DejaVuSans-5c" transform="translate(1036.84375 0)"/>
     </g>
    </g>
   </g>
   <g id="FillBetweenPolyCollection_1">
    <defs>
     <path id="mae5730b1e7" d="M 132.670675 -291.604773 
L 132.670675 -289.063758 
L 221.843725 -290.475433 
L 289.300533 -289.346093 
L 356.757341 -288.781423 
L 424.214149 -291.322438 
L 491.670957 -295.275129 
L 537.411523 -294.992794 
L 537.411523 -296.686805 
L 537.411523 -296.686805 
L 491.670957 -296.686805 
L 424.214149 -294.992794 
L 356.757341 -291.604773 
L 289.300533 -291.604773 
L 221.843725 -291.040103 
L 132.670675 -291.604773 
z
"/>
    </defs>
    <g clip-path="url(#p3a3e5a61fa)">
     <use xlink:href="#mae5730b1e7" x="0" y="352.435937" style="fill: #0070f3; fill-opacity: 0.1"/>
    </g>
   </g>
   <g id="FillBetweenPolyCollection_2">
    <defs>
     <path id="m3033034182" d="M 132.670675 -280.379815 
L 132.670675 -278.280839 
L 200.127483 -278.816991 
L 267.584291 -274.966967 
L 335.041099 -281.269598 
L 402.497907 -281.377969 
L 402.497907 -282.792497 
L 402.497907 -282.792497 
L 335.041099 -282.84383 
L 267.584291 -282.986424 
L 200.127483 -279.199141 
L 132.670675 -280.379815 
z
"/>
    </defs>
    <g clip-path="url(#p3a3e5a61fa)">
     <use xlink:href="#m3033034182" x="0" y="352.435937" style="fill: #7928ca; fill-opacity: 0.1"/>
    </g>
   </g>
   <g id="FillBetweenPolyCollection_3">
    <defs>
     <path id="m9dc0949ffb" d="M 65.213867 -272.322333 
L 65.213867 -268.108221 
L 132.670675 -266.905683 
L 172.130378 -268.756546 
L 217.870945 -268.672891 
L 217.870945 -270.753805 
L 217.870945 -270.753805 
L 172.130378 -269.268932 
L 132.670675 -268.599693 
L 65.213867 -272.322333 
z
"/>
    </defs>
    <g clip-path="url(#p3a3e5a61fa)">
     <use xlink:href="#m9dc0949ffb" x="0" y="352.435937" style="fill: #f5a623; fill-opacity: 0.1"/>
    </g>
   </g>
   <g id="patch_3">
    <path d="M 41.603984 314.932734 
L 41.603984 32.597656 
" style="fill: none; stroke: #ececec; stroke-width: 0.8; stroke-linejoin: miter; stroke-linecap: square"/>
   </g>
   <g id="patch_4">
    <path d="M 41.603984 314.932734 
L 561.021406 314.932734 
" style="fill: none; stroke: #ececec; stroke-width: 0.8; stroke-linejoin: miter; stroke-linecap: square"/>
   </g>
   <g id="line2d_36">
    <path d="M 132.670675 62.101672 
L 221.843725 61.678169 
L 289.300533 61.960504 
L 356.757341 62.242839 
L 424.214149 59.278321 
L 491.670957 56.45497 
L 537.411523 56.596138 
" clip-path="url(#p3a3e5a61fa)" style="fill: none; stroke: #0070f3; stroke-width: 2.2; stroke-linecap: square"/>
    <defs>
     <path id="m40bb2928dc" d="M 0 2.5 
C 0.663008 2.5 1.29895 2.236584 1.767767 1.767767 
C 2.236584 1.29895 2.5 0.663008 2.5 0 
C 2.5 -0.663008 2.236584 -1.29895 1.767767 -1.767767 
C 1.29895 -2.236584 0.663008 -2.5 0 -2.5 
C -0.663008 -2.5 -1.29895 -2.236584 -1.767767 -1.767767 
C -2.236584 -1.29895 -2.5 -0.663008 -2.5 0 
C -2.5 0.663008 -2.236584 1.29895 -1.767767 1.767767 
C -1.29895 2.236584 -0.663008 2.5 0 2.5 
z
" style="stroke: #0070f3; stroke-width: 1.6"/>
    </defs>
    <g clip-path="url(#p3a3e5a61fa)">
     <use xlink:href="#m40bb2928dc" x="132.670675" y="62.101672" style="fill: #ffffff; stroke: #0070f3; stroke-width: 1.6"/>
     <use xlink:href="#m40bb2928dc" x="221.843725" y="61.678169" style="fill: #ffffff; stroke: #0070f3; stroke-width: 1.6"/>
     <use xlink:href="#m40bb2928dc" x="289.300533" y="61.960504" style="fill: #ffffff; stroke: #0070f3; stroke-width: 1.6"/>
     <use xlink:href="#m40bb2928dc" x="356.757341" y="62.242839" style="fill: #ffffff; stroke: #0070f3; stroke-width: 1.6"/>
     <use xlink:href="#m40bb2928dc" x="424.214149" y="59.278321" style="fill: #ffffff; stroke: #0070f3; stroke-width: 1.6"/>
     <use xlink:href="#m40bb2928dc" x="491.670957" y="56.45497" style="fill: #ffffff; stroke: #0070f3; stroke-width: 1.6"/>
     <use xlink:href="#m40bb2928dc" x="537.411523" y="56.596138" style="fill: #ffffff; stroke: #0070f3; stroke-width: 1.6"/>
    </g>
   </g>
   <g id="line2d_37">
    <path d="M 132.670675 73.10561 
L 200.127483 73.427872 
L 267.584291 73.459242 
L 335.041099 70.379223 
L 402.497907 70.350704 
" clip-path="url(#p3a3e5a61fa)" style="fill: none; stroke: #7928ca; stroke-width: 2.2; stroke-linecap: square"/>
    <defs>
     <path id="m022742926c" d="M 0 2.5 
C 0.663008 2.5 1.29895 2.236584 1.767767 1.767767 
C 2.236584 1.29895 2.5 0.663008 2.5 0 
C 2.5 -0.663008 2.236584 -1.29895 1.767767 -1.767767 
C 1.29895 -2.236584 0.663008 -2.5 0 -2.5 
C -0.663008 -2.5 -1.29895 -2.236584 -1.767767 -1.767767 
C -2.236584 -1.29895 -2.5 -0.663008 -2.5 0 
C -2.5 0.663008 -2.236584 1.29895 -1.767767 1.767767 
C -1.29895 2.236584 -0.663008 2.5 0 2.5 
z
" style="stroke: #7928ca; stroke-width: 1.6"/>
    </defs>
    <g clip-path="url(#p3a3e5a61fa)">
     <use xlink:href="#m022742926c" x="132.670675" y="73.10561" style="fill: #ffffff; stroke: #7928ca; stroke-width: 1.6"/>
     <use xlink:href="#m022742926c" x="200.127483" y="73.427872" style="fill: #ffffff; stroke: #7928ca; stroke-width: 1.6"/>
     <use xlink:href="#m022742926c" x="267.584291" y="73.459242" style="fill: #ffffff; stroke: #7928ca; stroke-width: 1.6"/>
     <use xlink:href="#m022742926c" x="335.041099" y="70.379223" style="fill: #ffffff; stroke: #7928ca; stroke-width: 1.6"/>
     <use xlink:href="#m022742926c" x="402.497907" y="70.350704" style="fill: #ffffff; stroke: #7928ca; stroke-width: 1.6"/>
    </g>
   </g>
   <g id="line2d_38">
    <path d="M 65.213867 82.22066 
L 132.670675 84.68325 
L 172.130378 83.423199 
L 217.870945 82.722589 
" clip-path="url(#p3a3e5a61fa)" style="fill: none; stroke: #f5a623; stroke-width: 2.2; stroke-linecap: square"/>
    <defs>
     <path id="m597935d923" d="M 0 2.5 
C 0.663008 2.5 1.29895 2.236584 1.767767 1.767767 
C 2.236584 1.29895 2.5 0.663008 2.5 0 
C 2.5 -0.663008 2.236584 -1.29895 1.767767 -1.767767 
C 1.29895 -2.236584 0.663008 -2.5 0 -2.5 
C -0.663008 -2.5 -1.29895 -2.236584 -1.767767 -1.767767 
C -2.236584 -1.29895 -2.5 -0.663008 -2.5 0 
C -2.5 0.663008 -2.236584 1.29895 -1.767767 1.767767 
C -1.29895 2.236584 -0.663008 2.5 0 2.5 
z
" style="stroke: #f5a623; stroke-width: 1.6"/>
    </defs>
    <g clip-path="url(#p3a3e5a61fa)">
     <use xlink:href="#m597935d923" x="65.213867" y="82.22066" style="fill: #ffffff; stroke: #f5a623; stroke-width: 1.6"/>
     <use xlink:href="#m597935d923" x="132.670675" y="84.68325" style="fill: #ffffff; stroke: #f5a623; stroke-width: 1.6"/>
     <use xlink:href="#m597935d923" x="172.130378" y="83.423199" style="fill: #ffffff; stroke: #f5a623; stroke-width: 1.6"/>
     <use xlink:href="#m597935d923" x="217.870945" y="82.722589" style="fill: #ffffff; stroke: #f5a623; stroke-width: 1.6"/>
    </g>
   </g>
   <g id="text_11">
    <!-- Trace scaling law (RAG-only) -->
    <g style="fill: #0a0a0a" transform="translate(41.603984 18.597656) scale(0.15 -0.15)">
     <defs>
      <path id="DejaVuSans-Bold-37" d="M 31 4666 
L 4331 4666 
L 4331 3756 
L 2784 3756 
L 2784 0 
L 1581 0 
L 1581 3756 
L 31 3756 
L 31 4666 
z
" transform="scale(0.015625)"/>
      <path id="DejaVuSans-Bold-55" d="M 3138 2547 
Q 2991 2616 2845 2648 
Q 2700 2681 2553 2681 
Q 2122 2681 1889 2404 
Q 1656 2128 1656 1613 
L 1656 0 
L 538 0 
L 538 3500 
L 1656 3500 
L 1656 2925 
Q 1872 3269 2151 3426 
Q 2431 3584 2822 3584 
Q 2878 3584 2943 3579 
Q 3009 3575 3134 3559 
L 3138 2547 
z
" transform="scale(0.015625)"/>
      <path id="DejaVuSans-Bold-44" d="M 2106 1575 
Q 1756 1575 1579 1456 
Q 1403 1338 1403 1106 
Q 1403 894 1545 773 
Q 1688 653 1941 653 
Q 2256 653 2472 879 
Q 2688 1106 2688 1447 
L 2688 1575 
L 2106 1575 
z
M 3816 1997 
L 3816 0 
L 2688 0 
L 2688 519 
Q 2463 200 2181 54 
Q 1900 -91 1497 -91 
Q 953 -91 614 226 
Q 275 544 275 1050 
Q 275 1666 698 1953 
Q 1122 2241 2028 2241 
L 2688 2241 
L 2688 2328 
Q 2688 2594 2478 2717 
Q 2269 2841 1825 2841 
Q 1466 2841 1156 2769 
Q 847 2697 581 2553 
L 581 3406 
Q 941 3494 1303 3539 
Q 1666 3584 2028 3584 
Q 2975 3584 3395 3211 
Q 3816 2838 3816 1997 
z
" transform="scale(0.015625)"/>
      <path id="DejaVuSans-Bold-46" d="M 3366 3391 
L 3366 2478 
Q 3138 2634 2908 2709 
Q 2678 2784 2431 2784 
Q 1963 2784 1702 2511 
Q 1441 2238 1441 1747 
Q 1441 1256 1702 982 
Q 1963 709 2431 709 
Q 2694 709 2930 787 
Q 3166 866 3366 1019 
L 3366 103 
Q 3103 6 2833 -42 
Q 2563 -91 2291 -91 
Q 1344 -91 809 395 
Q 275 881 275 1747 
Q 275 2613 809 3098 
Q 1344 3584 2291 3584 
Q 2566 3584 2833 3536 
Q 3100 3488 3366 3391 
z
" transform="scale(0.015625)"/>
      <path id="DejaVuSans-Bold-48" d="M 4031 1759 
L 4031 1441 
L 1416 1441 
Q 1456 1047 1700 850 
Q 1944 653 2381 653 
Q 2734 653 3104 758 
Q 3475 863 3866 1075 
L 3866 213 
Q 3469 63 3072 -14 
Q 2675 -91 2278 -91 
Q 1328 -91 801 392 
Q 275 875 275 1747 
Q 275 2603 792 3093 
Q 1309 3584 2216 3584 
Q 3041 3584 3536 3087 
Q 4031 2591 4031 1759 
z
M 2881 2131 
Q 2881 2450 2695 2645 
Q 2509 2841 2209 2841 
Q 1884 2841 1681 2658 
Q 1478 2475 1428 2131 
L 2881 2131 
z
" transform="scale(0.015625)"/>
      <path id="DejaVuSans-Bold-3" transform="scale(0.015625)"/>
      <path id="DejaVuSans-Bold-56" d="M 3272 3391 
L 3272 2541 
Q 2913 2691 2578 2766 
Q 2244 2841 1947 2841 
Q 1628 2841 1473 2761 
Q 1319 2681 1319 2516 
Q 1319 2381 1436 2309 
Q 1553 2238 1856 2203 
L 2053 2175 
Q 2913 2066 3209 1816 
Q 3506 1566 3506 1031 
Q 3506 472 3093 190 
Q 2681 -91 1863 -91 
Q 1516 -91 1145 -36 
Q 775 19 384 128 
L 384 978 
Q 719 816 1070 734 
Q 1422 653 1784 653 
Q 2113 653 2278 743 
Q 2444 834 2444 1013 
Q 2444 1163 2330 1236 
Q 2216 1309 1875 1350 
L 1678 1375 
Q 931 1469 631 1722 
Q 331 1975 331 2491 
Q 331 3047 712 3315 
Q 1094 3584 1881 3584 
Q 2191 3584 2531 3537 
Q 2872 3491 3272 3391 
z
" transform="scale(0.015625)"/>
      <path id="DejaVuSans-Bold-4f" d="M 538 4863 
L 1656 4863 
L 1656 0 
L 538 0 
L 538 4863 
z
" transform="scale(0.015625)"/>
      <path id="DejaVuSans-Bold-4c" d="M 538 3500 
L 1656 3500 
L 1656 0 
L 538 0 
L 538 3500 
z
M 538 4863 
L 1656 4863 
L 1656 3950 
L 538 3950 
L 538 4863 
z
" transform="scale(0.015625)"/>
      <path id="DejaVuSans-Bold-51" d="M 4056 2131 
L 4056 0 
L 2931 0 
L 2931 347 
L 2931 1631 
Q 2931 2084 2911 2256 
Q 2891 2428 2841 2509 
Q 2775 2619 2662 2680 
Q 2550 2741 2406 2741 
Q 2056 2741 1856 2470 
Q 1656 2200 1656 1722 
L 1656 0 
L 538 0 
L 538 3500 
L 1656 3500 
L 1656 2988 
Q 1909 3294 2193 3439 
Q 2478 3584 2822 3584 
Q 3428 3584 3742 3212 
Q 4056 2841 4056 2131 
z
" transform="scale(0.015625)"/>
      <path id="DejaVuSans-Bold-4a" d="M 2919 594 
Q 2688 288 2409 144 
Q 2131 0 1766 0 
Q 1125 0 706 504 
Q 288 1009 288 1791 
Q 288 2575 706 3076 
Q 1125 3578 1766 3578 
Q 2131 3578 2409 3434 
Q 2688 3291 2919 2981 
L 2919 3500 
L 4044 3500 
L 4044 353 
Q 4044 -491 3511 -936 
Q 2978 -1381 1966 -1381 
Q 1638 -1381 1331 -1331 
Q 1025 -1281 716 -1178 
L 716 -306 
Q 1009 -475 1290 -558 
Q 1572 -641 1856 -641 
Q 2406 -641 2662 -400 
Q 2919 -159 2919 353 
L 2919 594 
z
M 2181 2772 
Q 1834 2772 1640 2515 
Q 1447 2259 1447 1791 
Q 1447 1309 1634 1061 
Q 1822 813 2181 813 
Q 2531 813 2725 1069 
Q 2919 1325 2919 1791 
Q 2919 2259 2725 2515 
Q 2531 2772 2181 2772 
z
" transform="scale(0.015625)"/>
      <path id="DejaVuSans-Bold-5a" d="M 225 3500 
L 1313 3500 
L 1900 1088 
L 2491 3500 
L 3425 3500 
L 4013 1113 
L 4603 3500 
L 5691 3500 
L 4769 0 
L 3547 0 
L 2956 2406 
L 2369 0 
L 1147 0 
L 225 3500 
z
" transform="scale(0.015625)"/>
      <path id="DejaVuSans-Bold-b" d="M 2413 -844 
L 1484 -844 
Q 1006 -72 778 623 
Q 550 1319 550 2003 
Q 550 2688 779 3389 
Q 1009 4091 1484 4856 
L 2413 4856 
Q 2013 4116 1813 3408 
Q 1613 2700 1613 2009 
Q 1613 1319 1811 609 
Q 2009 -100 2413 -844 
z
" transform="scale(0.015625)"/>
      <path id="DejaVuSans-Bold-35" d="M 2297 2597 
Q 2675 2597 2839 2737 
Q 3003 2878 3003 3200 
Q 3003 3519 2839 3656 
Q 2675 3794 2297 3794 
L 1791 3794 
L 1791 2597 
L 2297 2597 
z
M 1791 1766 
L 1791 0 
L 588 0 
L 588 4666 
L 2425 4666 
Q 3347 4666 3776 4356 
Q 4206 4047 4206 3378 
Q 4206 2916 3982 2619 
Q 3759 2322 3309 2181 
Q 3556 2125 3751 1926 
Q 3947 1728 4147 1325 
L 4800 0 
L 3519 0 
L 2950 1159 
Q 2778 1509 2601 1637 
Q 2425 1766 2131 1766 
L 1791 1766 
z
" transform="scale(0.015625)"/>
      <path id="DejaVuSans-Bold-24" d="M 3419 850 
L 1538 850 
L 1241 0 
L 31 0 
L 1759 4666 
L 3194 4666 
L 4922 0 
L 3713 0 
L 3419 850 
z
M 1838 1716 
L 3116 1716 
L 2478 3572 
L 1838 1716 
z
" transform="scale(0.015625)"/>
      <path id="DejaVuSans-Bold-2a" d="M 4781 347 
Q 4331 128 3847 18 
Q 3363 -91 2847 -91 
Q 1681 -91 1000 561 
Q 319 1213 319 2328 
Q 319 3456 1012 4103 
Q 1706 4750 2913 4750 
Q 3378 4750 3804 4662 
Q 4231 4575 4609 4403 
L 4609 3438 
Q 4219 3659 3833 3768 
Q 3447 3878 3059 3878 
Q 2341 3878 1952 3476 
Q 1563 3075 1563 2328 
Q 1563 1588 1938 1184 
Q 2313 781 3003 781 
Q 3191 781 3352 804 
Q 3513 828 3641 878 
L 3641 1784 
L 2906 1784 
L 2906 2591 
L 4781 2591 
L 4781 347 
z
" transform="scale(0.015625)"/>
      <path id="DejaVuSans-Bold-10" d="M 347 2297 
L 2309 2297 
L 2309 1388 
L 347 1388 
L 347 2297 
z
" transform="scale(0.015625)"/>
      <path id="DejaVuSans-Bold-52" d="M 2203 2784 
Q 1831 2784 1636 2517 
Q 1441 2250 1441 1747 
Q 1441 1244 1636 976 
Q 1831 709 2203 709 
Q 2569 709 2762 976 
Q 2956 1244 2956 1747 
Q 2956 2250 2762 2517 
Q 2569 2784 2203 2784 
z
M 2203 3584 
Q 3106 3584 3614 3096 
Q 4122 2609 4122 1747 
Q 4122 884 3614 396 
Q 3106 -91 2203 -91 
Q 1297 -91 786 396 
Q 275 884 275 1747 
Q 275 2609 786 3096 
Q 1297 3584 2203 3584 
z
" transform="scale(0.015625)"/>
      <path id="DejaVuSans-Bold-5c" d="M 78 3500 
L 1197 3500 
L 2138 1125 
L 2938 3500 
L 4056 3500 
L 2584 -331 
Q 2363 -916 2067 -1148 
Q 1772 -1381 1288 -1381 
L 641 -1381 
L 641 -647 
L 991 -647 
Q 1275 -647 1404 -556 
Q 1534 -466 1606 -231 
L 1638 -134 
L 78 3500 
z
" transform="scale(0.015625)"/>
      <path id="DejaVuSans-Bold-c" d="M 513 -844 
Q 913 -100 1113 609 
Q 1313 1319 1313 2009 
Q 1313 2700 1113 3408 
Q 913 4116 513 4856 
L 1441 4856 
Q 1916 4091 2145 3389 
Q 2375 2688 2375 2003 
Q 2375 1319 2147 623 
Q 1919 -72 1441 -844 
L 513 -844 
z
" transform="scale(0.015625)"/>
     </defs>
     <use xlink:href="#DejaVuSans-Bold-37"/>
     <use xlink:href="#DejaVuSans-Bold-55" transform="translate(57.234375 0)"/>
     <use xlink:href="#DejaVuSans-Bold-44" transform="translate(106.546875 0)"/>
     <use xlink:href="#DejaVuSans-Bold-46" transform="translate(174.03125 0)"/>
     <use xlink:href="#DejaVuSans-Bold-48" transform="translate(233.3125 0)"/>
     <use xlink:href="#DejaVuSans-Bold-3" transform="translate(301.140625 0)"/>
     <use xlink:href="#DejaVuSans-Bold-56" transform="translate(335.953125 0)"/>
     <use xlink:href="#DejaVuSans-Bold-46" transform="translate(395.46875 0)"/>
     <use xlink:href="#DejaVuSans-Bold-44" transform="translate(454.75 0)"/>
     <use xlink:href="#DejaVuSans-Bold-4f" transform="translate(522.234375 0)"/>
     <use xlink:href="#DejaVuSans-Bold-4c" transform="translate(556.515625 0)"/>
     <use xlink:href="#DejaVuSans-Bold-51" transform="translate(590.796875 0)"/>
     <use xlink:href="#DejaVuSans-Bold-4a" transform="translate(661.984375 0)"/>
     <use xlink:href="#DejaVuSans-Bold-3" transform="translate(733.5625 0)"/>
     <use xlink:href="#DejaVuSans-Bold-4f" transform="translate(768.375 0)"/>
     <use xlink:href="#DejaVuSans-Bold-44" transform="translate(802.65625 0)"/>
     <use xlink:href="#DejaVuSans-Bold-5a" transform="translate(870.140625 0)"/>
     <use xlink:href="#DejaVuSans-Bold-3" transform="translate(962.53125 0)"/>
     <use xlink:href="#DejaVuSans-Bold-b" transform="translate(997.34375 0)"/>
     <use xlink:href="#DejaVuSans-Bold-35" transform="translate(1043.046875 0)"/>
     <use xlink:href="#DejaVuSans-Bold-24" transform="translate(1120.046875 0)"/>
     <use xlink:href="#DejaVuSans-Bold-2a" transform="translate(1197.4375 0)"/>
     <use xlink:href="#DejaVuSans-Bold-10" transform="translate(1279.515625 0)"/>
     <use xlink:href="#DejaVuSans-Bold-52" transform="translate(1321.015625 0)"/>
     <use xlink:href="#DejaVuSans-Bold-51" transform="translate(1389.71875 0)"/>
     <use xlink:href="#DejaVuSans-Bold-4f" transform="translate(1460.90625 0)"/>
     <use xlink:href="#DejaVuSans-Bold-5c" transform="translate(1495.1875 0)"/>
     <use xlink:href="#DejaVuSans-Bold-c" transform="translate(1560.375 0)"/>
    </g>
   </g>
   <g id="legend_1">
    <g id="line2d_39">
     <path d="M 452.383906 270.028828 
L 462.383906 270.028828 
L 472.383906 270.028828 
" style="fill: none; stroke: #0070f3; stroke-width: 2.2; stroke-linecap: square"/>
     <g>
      <use xlink:href="#m40bb2928dc" x="462.383906" y="270.028828" style="fill: #ffffff; stroke: #0070f3; stroke-width: 1.6"/>
     </g>
    </g>
    <g id="text_12">
     <!-- tau-bench -->
     <g style="fill: #0a0a0a" transform="translate(480.383906 273.528828) scale(0.1 -0.1)">
      <defs>
       <path id="DejaVuSans-10" d="M 313 2009 
L 1997 2009 
L 1997 1497 
L 313 1497 
L 313 2009 
z
" transform="scale(0.015625)"/>
       <path id="DejaVuSans-45" d="M 3116 1747 
Q 3116 2381 2855 2742 
Q 2594 3103 2138 3103 
Q 1681 3103 1420 2742 
Q 1159 2381 1159 1747 
Q 1159 1113 1420 752 
Q 1681 391 2138 391 
Q 2594 391 2855 752 
Q 3116 1113 3116 1747 
z
M 1159 2969 
Q 1341 3281 1617 3432 
Q 1894 3584 2278 3584 
Q 2916 3584 3314 3078 
Q 3713 2572 3713 1747 
Q 3713 922 3314 415 
Q 2916 -91 2278 -91 
Q 1894 -91 1617 61 
Q 1341 213 1159 525 
L 1159 0 
L 581 0 
L 581 4863 
L 1159 4863 
L 1159 2969 
z
" transform="scale(0.015625)"/>
       <path id="DejaVuSans-4b" d="M 3513 2113 
L 3513 0 
L 2938 0 
L 2938 2094 
Q 2938 2591 2744 2837 
Q 2550 3084 2163 3084 
Q 1697 3084 1428 2787 
Q 1159 2491 1159 1978 
L 1159 0 
L 581 0 
L 581 4863 
L 1159 4863 
L 1159 2956 
Q 1366 3272 1645 3428 
Q 1925 3584 2291 3584 
Q 2894 3584 3203 3211 
Q 3513 2838 3513 2113 
z
" transform="scale(0.015625)"/>
      </defs>
      <use xlink:href="#DejaVuSans-57"/>
      <use xlink:href="#DejaVuSans-44" transform="translate(39.203125 0)"/>
      <use xlink:href="#DejaVuSans-58" transform="translate(100.484375 0)"/>
      <use xlink:href="#DejaVuSans-10" transform="translate(163.859375 0)"/>
      <use xlink:href="#DejaVuSans-45" transform="translate(199.9375 0)"/>
      <use xlink:href="#DejaVuSans-48" transform="translate(263.421875 0)"/>
      <use xlink:href="#DejaVuSans-51" transform="translate(324.953125 0)"/>
      <use xlink:href="#DejaVuSans-46" transform="translate(388.328125 0)"/>
      <use xlink:href="#DejaVuSans-4b" transform="translate(443.3125 0)"/>
     </g>
    </g>
    <g id="line2d_40">
     <path d="M 452.383906 285.029609 
L 462.383906 285.029609 
L 472.383906 285.029609 
" style="fill: none; stroke: #7928ca; stroke-width: 2.2; stroke-linecap: square"/>
     <g>
      <use xlink:href="#m022742926c" x="462.383906" y="285.029609" style="fill: #ffffff; stroke: #7928ca; stroke-width: 1.6"/>
     </g>
    </g>
    <g id="text_13">
     <!-- terminal-tasks -->
     <g style="fill: #0a0a0a" transform="translate(480.383906 288.529609) scale(0.1 -0.1)">
      <defs>
       <path id="DejaVuSans-50" d="M 3328 2828 
Q 3544 3216 3844 3400 
Q 4144 3584 4550 3584 
Q 5097 3584 5394 3201 
Q 5691 2819 5691 2113 
L 5691 0 
L 5113 0 
L 5113 2094 
Q 5113 2597 4934 2840 
Q 4756 3084 4391 3084 
Q 3944 3084 3684 2787 
Q 3425 2491 3425 1978 
L 3425 0 
L 2847 0 
L 2847 2094 
Q 2847 2600 2669 2842 
Q 2491 3084 2119 3084 
Q 1678 3084 1418 2786 
Q 1159 2488 1159 1978 
L 1159 0 
L 581 0 
L 581 3500 
L 1159 3500 
L 1159 2956 
Q 1356 3278 1631 3431 
Q 1906 3584 2284 3584 
Q 2666 3584 2933 3390 
Q 3200 3197 3328 2828 
z
" transform="scale(0.015625)"/>
       <path id="DejaVuSans-4e" d="M 581 4863 
L 1159 4863 
L 1159 1991 
L 2875 3500 
L 3609 3500 
L 1753 1863 
L 3688 0 
L 2938 0 
L 1159 1709 
L 1159 0 
L 581 0 
L 581 4863 
z
" transform="scale(0.015625)"/>
      </defs>
      <use xlink:href="#DejaVuSans-57"/>
      <use xlink:href="#DejaVuSans-48" transform="translate(39.203125 0)"/>
      <use xlink:href="#DejaVuSans-55" transform="translate(100.734375 0)"/>
      <use xlink:href="#DejaVuSans-50" transform="translate(140.09375 0)"/>
      <use xlink:href="#DejaVuSans-4c" transform="translate(237.5 0)"/>
      <use xlink:href="#DejaVuSans-51" transform="translate(265.28125 0)"/>
      <use xlink:href="#DejaVuSans-44" transform="translate(328.65625 0)"/>
      <use xlink:href="#DejaVuSans-4f" transform="translate(389.9375 0)"/>
      <use xlink:href="#DejaVuSans-10" transform="translate(417.71875 0)"/>
      <use xlink:href="#DejaVuSans-57" transform="translate(453.796875 0)"/>
      <use xlink:href="#DejaVuSans-44" transform="translate(493 0)"/>
      <use xlink:href="#DejaVuSans-56" transform="translate(554.28125 0)"/>
      <use xlink:href="#DejaVuSans-4e" transform="translate(606.375 0)"/>
      <use xlink:href="#DejaVuSans-56" transform="translate(664.28125 0)"/>
     </g>
    </g>
    <g id="line2d_41">
     <path d="M 452.383906 300.030391 
L 462.383906 300.030391 
L 472.383906 300.030391 
" style="fill: none; stroke: #f5a623; stroke-width: 2.2; stroke-linecap: square"/>
     <g>
      <use xlink:href="#m597935d923" x="462.383906" y="300.030391" style="fill: #ffffff; stroke: #f5a623; stroke-width: 1.6"/>
     </g>
    </g>
    <g id="text_14">
     <!-- swe-bench -->
     <g style="fill: #0a0a0a" transform="translate(480.383906 303.530391) scale(0.1 -0.1)">
      <defs>
       <path id="DejaVuSans-5a" d="M 269 3500 
L 844 3500 
L 1563 769 
L 2278 3500 
L 2956 3500 
L 3675 769 
L 4391 3500 
L 4966 3500 
L 4050 0 
L 3372 0 
L 2619 2869 
L 1863 0 
L 1184 0 
L 269 3500 
z
" transform="scale(0.015625)"/>
      </defs>
      <use xlink:href="#DejaVuSans-56"/>
      <use xlink:href="#DejaVuSans-5a" transform="translate(52.09375 0)"/>
      <use xlink:href="#DejaVuSans-48" transform="translate(133.875 0)"/>
      <use xlink:href="#DejaVuSans-10" transform="translate(195.40625 0)"/>
      <use xlink:href="#DejaVuSans-45" transform="translate(231.484375 0)"/>
      <use xlink:href="#DejaVuSans-48" transform="translate(294.96875 0)"/>
      <use xlink:href="#DejaVuSans-51" transform="translate(356.5 0)"/>
      <use xlink:href="#DejaVuSans-46" transform="translate(419.875 0)"/>
      <use xlink:href="#DejaVuSans-4b" transform="translate(474.859375 0)"/>
     </g>
    </g>
   </g>
  </g>
 </g>
 <defs>
  <clipPath id="p3a3e5a61fa">
   <rect x="41.603984" y="32.597656" width="519.417422" height="282.335078"/>
  </clipPath>
 </defs>
</svg>
